<mxfile host="app.diagrams.net" modified="2024-05-15T19:23:36.341Z" agent="Mozilla/5.0 (Windows NT 10.0; Win64; x64) AppleWebKit/537.36 (KHTML, like Gecko) Chrome/124.0.0.0 Safari/537.36" etag="utruk--6xkm1Vm4mQGy5" version="24.4.0" type="device">
  <diagram name="Page-1" id="Ai5kb1i_mKgdfWgxNE-5">
    <mxGraphModel dx="1500" dy="757" grid="1" gridSize="10" guides="1" tooltips="1" connect="1" arrows="1" fold="1" page="1" pageScale="1" pageWidth="827" pageHeight="1169" math="0" shadow="0">
      <root>
        <mxCell id="0" />
        <mxCell id="1" parent="0" />
        <mxCell id="kcvLWjM9aEoVZwAG9wS8-1" value="Passenger" style="swimlane;childLayout=stackLayout;horizontal=1;startSize=50;horizontalStack=0;rounded=1;fontSize=14;fontStyle=0;strokeWidth=2;resizeParent=0;resizeLast=1;shadow=0;dashed=0;align=center;arcSize=4;whiteSpace=wrap;html=1;" vertex="1" parent="1">
          <mxGeometry x="10" y="30" width="160" height="120" as="geometry" />
        </mxCell>
        <mxCell id="kcvLWjM9aEoVZwAG9wS8-2" value="Name&lt;div&gt;&lt;br&gt;&lt;/div&gt;" style="align=left;strokeColor=none;fillColor=none;spacingLeft=4;fontSize=12;verticalAlign=top;resizable=0;rotatable=0;part=1;html=1;" vertex="1" parent="kcvLWjM9aEoVZwAG9wS8-1">
          <mxGeometry y="50" width="160" height="70" as="geometry" />
        </mxCell>
        <mxCell id="kcvLWjM9aEoVZwAG9wS8-3" value="Flight" style="swimlane;childLayout=stackLayout;horizontal=1;startSize=50;horizontalStack=0;rounded=1;fontSize=14;fontStyle=0;strokeWidth=2;resizeParent=0;resizeLast=1;shadow=0;dashed=0;align=center;arcSize=4;whiteSpace=wrap;html=1;" vertex="1" parent="1">
          <mxGeometry x="500" y="160" width="160" height="160" as="geometry" />
        </mxCell>
        <mxCell id="kcvLWjM9aEoVZwAG9wS8-4" value="Number&lt;div&gt;DepartureDateTime&lt;/div&gt;&lt;div&gt;ArrivalDateTime&lt;/div&gt;&lt;div&gt;Duration&lt;/div&gt;&lt;div&gt;Distance&lt;/div&gt;&lt;div&gt;Airline&lt;/div&gt;&lt;div&gt;&lt;br&gt;&lt;/div&gt;" style="align=left;strokeColor=none;fillColor=none;spacingLeft=4;fontSize=12;verticalAlign=top;resizable=0;rotatable=0;part=1;html=1;" vertex="1" parent="kcvLWjM9aEoVZwAG9wS8-3">
          <mxGeometry y="50" width="160" height="110" as="geometry" />
        </mxCell>
        <mxCell id="kcvLWjM9aEoVZwAG9wS8-8" value="Airport" style="swimlane;childLayout=stackLayout;horizontal=1;startSize=50;horizontalStack=0;rounded=1;fontSize=14;fontStyle=0;strokeWidth=2;resizeParent=0;resizeLast=1;shadow=0;dashed=0;align=center;arcSize=4;whiteSpace=wrap;html=1;" vertex="1" parent="1">
          <mxGeometry x="810" y="160" width="170" height="160" as="geometry" />
        </mxCell>
        <mxCell id="kcvLWjM9aEoVZwAG9wS8-9" value="IATACode&lt;div&gt;Name&lt;/div&gt;&lt;div&gt;City&lt;/div&gt;&lt;div&gt;State&lt;/div&gt;&lt;div&gt;Country&lt;/div&gt;" style="align=left;strokeColor=none;fillColor=none;spacingLeft=4;fontSize=12;verticalAlign=top;resizable=0;rotatable=0;part=1;html=1;" vertex="1" parent="kcvLWjM9aEoVZwAG9wS8-8">
          <mxGeometry y="50" width="170" height="110" as="geometry" />
        </mxCell>
        <mxCell id="kcvLWjM9aEoVZwAG9wS8-11" value="" style="edgeStyle=entityRelationEdgeStyle;fontSize=12;html=1;endArrow=ERmany;startArrow=ERmany;rounded=0;entryX=0;entryY=0;entryDx=0;entryDy=0;exitX=1;exitY=0;exitDx=0;exitDy=0;" edge="1" parent="1" source="kcvLWjM9aEoVZwAG9wS8-4" target="kcvLWjM9aEoVZwAG9wS8-9">
          <mxGeometry width="100" height="100" relative="1" as="geometry">
            <mxPoint x="650" y="420" as="sourcePoint" />
            <mxPoint x="750" y="320" as="targetPoint" />
          </mxGeometry>
        </mxCell>
        <mxCell id="kcvLWjM9aEoVZwAG9wS8-12" value="departs/arrives at&lt;div&gt;&lt;br&gt;&lt;/div&gt;" style="edgeLabel;html=1;align=center;verticalAlign=middle;resizable=0;points=[];" vertex="1" connectable="0" parent="kcvLWjM9aEoVZwAG9wS8-11">
          <mxGeometry x="0.032" y="-4" relative="1" as="geometry">
            <mxPoint as="offset" />
          </mxGeometry>
        </mxCell>
        <mxCell id="kcvLWjM9aEoVZwAG9wS8-13" value="Ticket" style="swimlane;childLayout=stackLayout;horizontal=1;startSize=50;horizontalStack=0;rounded=1;fontSize=14;fontStyle=0;strokeWidth=2;resizeParent=0;resizeLast=1;shadow=0;dashed=0;align=center;arcSize=4;whiteSpace=wrap;html=1;" vertex="1" parent="1">
          <mxGeometry x="280" y="30" width="160" height="120" as="geometry" />
        </mxCell>
        <mxCell id="kcvLWjM9aEoVZwAG9wS8-14" value="TicketNumber&lt;div&gt;Price&lt;/div&gt;&lt;div&gt;FlightClass&lt;/div&gt;&lt;div&gt;ConfirmationNumber&lt;/div&gt;" style="align=left;strokeColor=none;fillColor=none;spacingLeft=4;fontSize=12;verticalAlign=top;resizable=0;rotatable=0;part=1;html=1;" vertex="1" parent="kcvLWjM9aEoVZwAG9wS8-13">
          <mxGeometry y="50" width="160" height="70" as="geometry" />
        </mxCell>
        <mxCell id="kcvLWjM9aEoVZwAG9wS8-16" value="" style="edgeStyle=entityRelationEdgeStyle;fontSize=12;html=1;endArrow=ERmany;startArrow=ERmany;rounded=0;entryX=1;entryY=0;entryDx=0;entryDy=0;exitX=0;exitY=0;exitDx=0;exitDy=0;" edge="1" parent="1" source="kcvLWjM9aEoVZwAG9wS8-14" target="kcvLWjM9aEoVZwAG9wS8-2">
          <mxGeometry width="100" height="100" relative="1" as="geometry">
            <mxPoint x="140" y="330" as="sourcePoint" />
            <mxPoint x="240" y="230" as="targetPoint" />
            <Array as="points">
              <mxPoint x="100" y="340" />
            </Array>
          </mxGeometry>
        </mxCell>
        <mxCell id="kcvLWjM9aEoVZwAG9wS8-18" value="purchases" style="edgeLabel;html=1;align=center;verticalAlign=middle;resizable=0;points=[];" vertex="1" connectable="0" parent="kcvLWjM9aEoVZwAG9wS8-16">
          <mxGeometry x="-0.0307" y="2" relative="1" as="geometry">
            <mxPoint as="offset" />
          </mxGeometry>
        </mxCell>
        <mxCell id="kcvLWjM9aEoVZwAG9wS8-19" value="" style="edgeStyle=entityRelationEdgeStyle;fontSize=12;html=1;endArrow=ERmany;startArrow=ERmany;rounded=0;entryX=0;entryY=0;entryDx=0;entryDy=0;exitX=1;exitY=0;exitDx=0;exitDy=0;" edge="1" parent="1" source="kcvLWjM9aEoVZwAG9wS8-14" target="kcvLWjM9aEoVZwAG9wS8-4">
          <mxGeometry width="100" height="100" relative="1" as="geometry">
            <mxPoint x="490" y="310" as="sourcePoint" />
            <mxPoint x="590" y="210" as="targetPoint" />
          </mxGeometry>
        </mxCell>
        <mxCell id="kcvLWjM9aEoVZwAG9wS8-20" value="issued for" style="edgeLabel;html=1;align=center;verticalAlign=middle;resizable=0;points=[];" vertex="1" connectable="0" parent="kcvLWjM9aEoVZwAG9wS8-19">
          <mxGeometry x="-0.08" y="3" relative="1" as="geometry">
            <mxPoint as="offset" />
          </mxGeometry>
        </mxCell>
      </root>
    </mxGraphModel>
  </diagram>
</mxfile>
